<?xml version="1.0" encoding="iso-8859-1"?>
<!-- Generator: Adobe Illustrator 16.0.0, SVG Export Plug-In . SVG Version: 6.00 Build 0)  -->
<!DOCTYPE svg PUBLIC "-//W3C//DTD SVG 1.1//EN" "http://www.w3.org/Graphics/SVG/1.1/DTD/svg11.dtd">
<svg version="1.1" id="Capa_1" xmlns="http://www.w3.org/2000/svg" xmlns:xlink="http://www.w3.org/1999/xlink" x="0px" y="0px"
	 width="45.077px" height="45.076px" viewBox="0 0 45.077 45.076" style="enable-background:new 0 0 45.077 45.076;"
	 xml:space="preserve">
<g>
	<g>
		<path d="M28.113,12.649h-5.571v-2.344c0-0.463-0.268-0.883-0.697-1.062c-0.43-0.177-0.918-0.079-1.246,0.249l-4.749,4.75
			c-0.234,0.236-0.366,0.555-0.366,0.888s0.134,0.652,0.369,0.888l4.75,4.75c0.328,0.33,0.811,0.426,1.241,0.249
			c0.428-0.177,0.697-0.597,0.697-1.062v-2.359h5.571c1.201,0,2.174-1.274,2.174-2.473C30.287,13.923,29.314,12.649,28.113,12.649z"
			/>
		<path d="M25.165,24.322c-0.328-0.33-0.83-0.426-1.259-0.25c-0.429,0.178-0.719,0.598-0.719,1.062v2.356h-5.528
			c-1.199,0-2.174,1.274-2.174,2.473c0,1.2,0.975,2.476,2.174,2.476h5.528v2.348c0,0.465,0.289,0.883,0.719,1.062
			c0.43,0.176,0.93,0.078,1.259-0.25l4.752-4.752c0.236-0.234,0.368-0.554,0.368-0.886c0-0.333-0.132-0.651-0.368-0.888
			L25.165,24.322z"/>
		<path d="M5.893,12.649c-0.008,0-0.04,0-0.048,0c-1.62,0-3.165,0.736-4.245,1.945c-1.081,1.209-1.594,2.842-1.412,4.453
			L2.802,42.17c0.179,1.594,1.481,2.906,3.066,2.906c1.587,0,2.888-1.305,3.068-2.896l2.612-23.134
			c0.182-1.61-0.331-3.242-1.412-4.451C9.056,13.385,7.513,12.649,5.893,12.649z"/>
		<circle cx="5.868" cy="5.606" r="5.606"/>
		<path d="M43.477,14.594c-1.08-1.209-2.625-1.945-4.245-1.945c-0.008,0-0.04,0-0.048,0c-1.621,0-3.164,0.736-4.244,1.945
			c-1.081,1.209-1.595,2.842-1.412,4.453L36.14,42.17c0.181,1.594,1.48,2.906,3.067,2.906c1.585,0,2.888-1.305,3.066-2.896
			l2.613-23.134C45.071,17.435,44.558,15.803,43.477,14.594z"/>
		<circle cx="39.208" cy="5.606" r="5.606"/>
	</g>
</g>
<g>
</g>
<g>
</g>
<g>
</g>
<g>
</g>
<g>
</g>
<g>
</g>
<g>
</g>
<g>
</g>
<g>
</g>
<g>
</g>
<g>
</g>
<g>
</g>
<g>
</g>
<g>
</g>
<g>
</g>
</svg>
