<?xml version="1.0" encoding="iso-8859-1"?>
<!-- Generator: Adobe Illustrator 19.0.0, SVG Export Plug-In . SVG Version: 6.00 Build 0)  -->
<svg version="1.1" id="Layer_1" xmlns="http://www.w3.org/2000/svg" xmlns:xlink="http://www.w3.org/1999/xlink" x="0px" y="0px"
	 viewBox="0 0 512 512" style="enable-background:new 0 0 512 512;" xml:space="preserve">
<circle style="fill:#273B7A;" cx="256" cy="256" r="256"/>
<path style="fill:#121149;" d="M260.844,511.938c129.889-2.412,236.118-101.552,249.68-228.417l-85.533-85.532l-2.108,3.205
	l-58.606-58.609l-21.525-4.903l-68.003-69.299l-4.682,32.682l-86.159,19.634l-68.118,68.118l-4.31,16.331l-19.477,28.131
	l29.243,29.243l-69.844,39.979L260.844,511.938z"/>
<path style="fill:#38C6D9;" d="M412.875,256c0-86.118-69.753-156.239-155.726-156.86v10.357
	c80.268,0.624,145.382,66.091,145.382,146.503S337.418,401.88,257.15,402.503v10.357C343.123,412.239,412.875,342.118,412.875,256z"
	/>
<path style="fill:#71E2EF;" d="M256,402.532c-80.798,0-146.532-65.734-146.532-146.532S175.202,109.468,256,109.468
	c0.386,0,0.765,0.026,1.15,0.029V99.14c-0.384-0.003-0.765-0.016-1.15-0.016c-86.502,0-156.875,70.373-156.875,156.875
	S169.498,412.875,256,412.875c0.384,0,0.765-0.012,1.15-0.016v-10.357C256.765,402.506,256.386,402.532,256,402.532z"/>
<path style="fill:#FF7F4F;" d="M200.039,174.73c0-30.904,25.055-55.958,55.961-55.958s55.961,25.054,55.961,55.96L200.039,174.73z"
	/>
<path style="fill:#D35933;" d="M256.862,118.793v55.937h55.099C311.961,144.113,287.37,119.255,256.862,118.793z"/>
<circle style="fill:#FF7F4F;" cx="256.896" cy="86.247" r="25.207"/>
<path style="fill:#D35933;" d="M256.903,61.047c-0.014,0-0.028,0.002-0.041,0.002v50.412c0.014,0,0.028,0.002,0.041,0.002
	c13.922,0,25.207-11.285,25.207-25.207S270.826,61.047,256.903,61.047z"/>
<path style="fill:#FF7F4F;" d="M200.039,430.264c0-30.904,25.055-55.958,55.961-55.958s55.961,25.054,55.961,55.96L200.039,430.264z
	"/>
<path style="fill:#D35933;" d="M256.862,374.327v55.937h55.099C311.961,399.65,287.37,374.791,256.862,374.327z"/>
<circle style="fill:#FF7F4F;" cx="256.896" cy="341.782" r="25.207"/>
<path style="fill:#D35933;" d="M256.903,316.583c-0.014,0-0.028,0.002-0.041,0.002v50.412c0.014,0,0.028,0.002,0.041,0.002
	c13.922,0,25.207-11.285,25.207-25.207C282.11,327.868,270.826,316.583,256.903,316.583z"/>
<path style="fill:#FFC61B;" d="M51.402,302.497c0-30.904,25.055-55.958,55.961-55.958s55.961,25.054,55.961,55.96L51.402,302.497z"
	/>
<path style="fill:#EAA22F;" d="M108.225,246.56v55.937h55.099C163.325,271.882,138.731,247.024,108.225,246.56z"/>
<circle style="fill:#FFC61B;" cx="108.266" cy="214.023" r="25.207"/>
<path style="fill:#EAA22F;" d="M108.266,188.814c-0.014,0-0.028,0.002-0.041,0.002v50.412c0.014,0,0.028,0.002,0.041,0.002
	c13.922,0,25.207-11.285,25.207-25.207C133.473,200.101,122.187,188.816,108.266,188.814z"/>
<path style="fill:#FFC61B;" d="M348.677,302.497c0-30.904,25.055-55.958,55.961-55.958s55.961,25.054,55.961,55.96L348.677,302.497z
	"/>
<path style="fill:#EAA22F;" d="M405.499,246.56v55.937h55.099C460.598,271.882,436.007,247.024,405.499,246.56z"/>
<circle style="fill:#FFC61B;" cx="405.549" cy="214.023" r="25.207"/>
<path style="fill:#EAA22F;" d="M405.54,188.814c-0.014,0-0.028,0.002-0.041,0.002v50.412c0.014,0,0.028,0.002,0.041,0.002
	c13.922,0,25.207-11.285,25.207-25.207C430.749,200.101,419.462,188.816,405.54,188.814z"/>
<g>
</g>
<g>
</g>
<g>
</g>
<g>
</g>
<g>
</g>
<g>
</g>
<g>
</g>
<g>
</g>
<g>
</g>
<g>
</g>
<g>
</g>
<g>
</g>
<g>
</g>
<g>
</g>
<g>
</g>
</svg>
